<?xml version="1.0" encoding="UTF-8" standalone="no"?>
<!-- Created with Inkscape (http://www.inkscape.org/) -->

<svg
   width="255.99997mm"
   height="256mm"
   viewBox="0 0 255.99997 256"
   version="1.1"
   id="svg5"
   xml:space="preserve"
   xmlns:inkscape="http://www.inkscape.org/namespaces/inkscape"
   xmlns:sodipodi="http://sodipodi.sourceforge.net/DTD/sodipodi-0.dtd"
   xmlns="http://www.w3.org/2000/svg"
   xmlns:svg="http://www.w3.org/2000/svg"><sodipodi:namedview
     id="namedview7"
     pagecolor="#ffffff"
     bordercolor="#000000"
     borderopacity="0.25"
     inkscape:showpageshadow="2"
     inkscape:pageopacity="0.0"
     inkscape:pagecheckerboard="0"
     inkscape:deskcolor="#d1d1d1"
     inkscape:document-units="mm"
     showgrid="false"
     showguides="true"><sodipodi:guide
       position="-331.6553,438.90261"
       orientation="1,0"
       id="guide2516"
       inkscape:locked="false" /></sodipodi:namedview><defs
     id="defs2"><style
       id="style193">.cls-1{fill-rule:evenodd;}</style></defs><g
     inkscape:label="Layer 1"
     inkscape:groupmode="layer"
     id="layer1"
     transform="translate(-300.1334,-0.13337999)"><rect
       style="fill:none;fill-opacity:0.25;stroke:none;stroke-width:0.26676;stroke-opacity:1"
       id="rect2478"
       width="256"
       height="256"
       x="300.13339"
       y="0.13338"
       inkscape:export-filename="Icon128.png"
       inkscape:export-xdpi="12.700002"
       inkscape:export-ydpi="12.700002"
       rx="28.919182"
       ry="28.919182" /><g
       id="g2514"
       transform="translate(37.55258,11.5)"><path
         class="cls-1"
         d="m 450.06073,122.87552 v 0 c -0.65331,3.15267 -3.56186,11.23894 -12.83154,15.61919 l -3.71996,-4.18495 -6.27744,6.31463 a 23.18466,23.18466 0 0 1 -18.33476,-9.40452 9.0395063,9.0395063 0 0 0 2.05528,0.38593 c 1.02764,0.0186 2.14131,-0.35804 2.14131,-2.09247 v -17.03045 a 2.8039209,2.8039209 0 0 0 -3.52932,-2.80625 c -2.90622,0.66495 -5.23119,7.9212 -5.23119,7.9212 a 23.075386,23.075386 0 0 1 7.98861,-17.683769 c 4.32911,-3.668816 8.55824,-4.938249 11.77136,-5.435795 -3.1736,1.808832 -4.95918,4.761553 -4.95918,7.239984 0,3.97338 2.39938,3.50373 3.11082,2.91784 v 22.99866 a 3.7199614,3.7199614 0 0 0 0.46499,0.81142 3.3921398,3.3921398 0 0 0 2.783,1.40428 c 2.40403,0 5.52182,-2.74347 5.52182,-2.74347 v -18.62306 c 0,-1.89485 -1.42754,-4.18496 -2.8574,-4.96615 0,0 2.64583,-0.465 4.6918,1.09507 v 0 a 17.251321,17.251321 0 0 1 1.22294,-1.34617 c 4.75691,-4.673193 9.24643,-5.998433 12.98499,-6.663378 v 0 c 0,0 -6.8052,5.347448 -6.8052,12.508378 0,5.33116 0.13717,18.33011 0.13717,18.33011 2.5319,2.43192 6.28208,-1.07879 9.6719,-4.56626 z"
         id="path2492"
         style="stroke-width:0.232497" /><path
         class="cls-1"
         d="m 427.53171,79.510075 a 37.913382,37.913382 0 1 0 37.91571,37.911055 37.911057,37.911057 0 0 0 -37.91571,-37.911055 z m 0,74.308545 a 36.397497,36.397497 0 1 1 36.39518,-36.39749 36.397497,36.397497 0 0 1 -36.39518,36.39749 z"
         id="path2494"
         style="fill:#1abcfe;fill-opacity:1;stroke:none;stroke-width:0.232497;stroke-opacity:1" /><g
         id="g2490"
         transform="matrix(0.74544617,0,0,0.74544617,315.44742,5)"><path
           id="path2480"
           class="st0"
           d="m 50,300 c 27.6,0 50,-22.4 50,-50 V 200 H 50 c -27.6,0 -50,22.4 -50,50 0,27.6 22.4,50 50,50 z" /><path
           id="path2482"
           class="st1"
           d="m 0,150 c 0,-27.6 22.4,-50 50,-50 h 50 V 200 H 50 C 22.4,200 0,177.6 0,150 Z" /><path
           id="path2484"
           class="st2"
           d="M 0,50 C 0,22.4 22.4,0 50,0 h 50 V 100 H 50 C 22.4,100 0,77.6 0,50 Z" /><path
           id="path2486"
           class="st3"
           d="m 100,0 h 50 c 27.6,0 50,22.4 50,50 0,27.6 -22.4,50 -50,50 h -50 z" /></g><path
         class="cls-1"
         d="m 375.73843,122.87552 v 0 c -0.65331,3.15267 -3.56186,11.23894 -12.83154,15.61919 l -3.71996,-4.18495 -6.27744,6.31463 a 23.18466,23.18466 0 0 1 -18.33476,-9.40452 9.0395063,9.0395063 0 0 0 2.05528,0.38593 c 1.02764,0.0186 2.14131,-0.35804 2.14131,-2.09247 v -17.03045 a 2.8039209,2.8039209 0 0 0 -3.52932,-2.80625 c -2.90622,0.66495 -5.23119,7.9212 -5.23119,7.9212 a 23.075386,23.075386 0 0 1 7.98861,-17.683769 c 4.32911,-3.668816 8.55824,-4.938249 11.77136,-5.435795 -3.1736,1.808832 -4.95918,4.761553 -4.95918,7.239984 0,3.97338 2.39938,3.50373 3.11082,2.91784 v 22.99866 a 3.7199614,3.7199614 0 0 0 0.46499,0.81142 3.3921398,3.3921398 0 0 0 2.783,1.40428 c 2.40403,0 5.52182,-2.74347 5.52182,-2.74347 v -18.62306 c 0,-1.89485 -1.42754,-4.18496 -2.8574,-4.96615 0,0 2.64583,-0.465 4.6918,1.09507 v 0 a 17.251321,17.251321 0 0 1 1.22294,-1.34617 c 4.75691,-4.673193 9.24643,-5.998433 12.98499,-6.663378 v 0 c 0,0 -6.8052,5.347448 -6.8052,12.508378 0,5.33116 0.13717,18.33011 0.13717,18.33011 2.5319,2.43192 6.28208,-1.07879 9.6719,-4.56626 z"
         id="path3994"
         style="fill:#000000;fill-opacity:0.25;stroke-width:0.232497" /><path
         class="cls-1"
         d="m 375.73843,47.974844 v 0 c -0.65331,3.152667 -3.56186,11.238935 -12.83154,15.619189 l -3.71996,-4.184956 -6.27744,6.314631 a 23.18466,23.18466 0 0 1 -18.33476,-9.404522 9.0395063,9.0395063 0 0 0 2.05528,0.385939 c 1.02764,0.01863 2.14131,-0.358039 2.14131,-2.092479 V 37.582197 A 2.8039209,2.8039209 0 0 0 335.242,34.775952 c -2.90622,0.664945 -5.23119,7.921198 -5.23119,7.921198 a 23.075386,23.075386 0 0 1 7.98861,-17.683768 c 4.32911,-3.668816 8.55824,-4.938249 11.77136,-5.435795 -3.1736,1.808832 -4.95918,4.761553 -4.95918,7.239979 0,3.973385 2.39938,3.503738 3.11082,2.917844 v 22.998659 a 3.7199614,3.7199614 0 0 0 0.46499,0.81142 3.3921398,3.3921398 0 0 0 2.783,1.404283 c 2.40403,0 5.52182,-2.743469 5.52182,-2.743469 V 33.583242 c 0,-1.894852 -1.42754,-4.184957 -2.8574,-4.966149 0,0 2.64583,-0.464998 4.6918,1.095066 v 0 a 17.251321,17.251321 0 0 1 1.22294,-1.346163 c 4.75691,-4.673198 9.24643,-5.998438 12.98499,-6.663383 v 0 c 0,0 -6.8052,5.347448 -6.8052,12.508376 0,5.331165 0.13717,18.330111 0.13717,18.330111 2.5319,2.431923 6.28208,-1.078792 9.6719,-4.566256 z"
         id="path4000"
         style="fill:#000000;fill-opacity:0.5;stroke-width:0.232497" /><path
         class="cls-1"
         d="m 449.48234,47.974844 v 0 c -0.65331,3.152667 -3.56186,11.238935 -12.83154,15.619189 l -3.71996,-4.184956 -6.27744,6.314631 a 23.18466,23.18466 0 0 1 -18.33476,-9.404522 9.0395063,9.0395063 0 0 0 2.05528,0.385939 c 1.02764,0.01863 2.14131,-0.358039 2.14131,-2.092479 V 37.582197 a 2.8039209,2.8039209 0 0 0 -3.52932,-2.806245 c -2.90622,0.664945 -5.23119,7.921198 -5.23119,7.921198 a 23.075386,23.075386 0 0 1 7.98861,-17.683768 c 4.32911,-3.668816 8.55824,-4.938249 11.77136,-5.435795 -3.1736,1.808832 -4.95918,4.761553 -4.95918,7.239979 0,3.973385 2.39938,3.503738 3.11082,2.917844 v 22.998659 a 3.7199614,3.7199614 0 0 0 0.46499,0.81142 3.3921398,3.3921398 0 0 0 2.783,1.404283 c 2.40403,0 5.52182,-2.743469 5.52182,-2.743469 V 33.583242 c 0,-1.894852 -1.42754,-4.184957 -2.8574,-4.966149 0,0 2.64583,-0.464998 4.6918,1.095066 v 0 a 17.251321,17.251321 0 0 1 1.22294,-1.346163 c 4.75691,-4.673198 9.24643,-5.998438 12.98499,-6.663383 v 0 c 0,0 -6.8052,5.347448 -6.8052,12.508376 0,5.331165 0.13717,18.330111 0.13717,18.330111 2.5319,2.431923 6.28208,-1.078792 9.6719,-4.566256 z"
         id="path4006"
         style="fill:#000000;fill-opacity:0.75;stroke-width:0.232497" /></g></g><style
     type="text/css"
     id="style9">.st0{fill:#0acf83}.st1{fill:#a259ff}.st2{fill:#f24e1e}.st3{fill:#ff7262}.st4{fill:#1abcfe}</style></svg>
